<mxfile host="65bd71144e">
    <diagram id="aZVZsF1e8a7Gq9DUUYFK" name="第 1 页">
        <mxGraphModel dx="3106" dy="1281" grid="1" gridSize="10" guides="1" tooltips="1" connect="1" arrows="1" fold="1" page="1" pageScale="1" pageWidth="827" pageHeight="1169" math="0" shadow="0">
            <root>
                <mxCell id="0"/>
                <mxCell id="1" parent="0"/>
                <mxCell id="8" style="edgeStyle=none;curved=1;rounded=0;orthogonalLoop=1;jettySize=auto;html=1;entryX=0.5;entryY=0;entryDx=0;entryDy=0;endArrow=open;startSize=14;endSize=14;sourcePerimeterSpacing=8;targetPerimeterSpacing=8;" parent="1" source="6" target="3" edge="1">
                    <mxGeometry relative="1" as="geometry"/>
                </mxCell>
                <mxCell id="9" value="1. Gamepad supporting&lt;br style=&quot;font-size: 15px;&quot;&gt;2. Gamepad configurations&lt;br style=&quot;font-size: 15px;&quot;&gt;3. events binding&lt;br style=&quot;font-size: 15px;&quot;&gt;4. threshold validations" style="edgeLabel;html=1;align=left;verticalAlign=middle;resizable=0;points=[];fontSize=15;labelBackgroundColor=default;" parent="8" vertex="1" connectable="0">
                    <mxGeometry x="-0.6667" y="4" relative="1" as="geometry">
                        <mxPoint x="16" y="46" as="offset"/>
                    </mxGeometry>
                </mxCell>
                <mxCell id="6" value=". . . . . ." style="whiteSpace=wrap;html=1;fillColor=#f5f5f5;fontColor=#333333;strokeColor=#666666;fillStyle=dashed;dashed=1;" parent="1" vertex="1">
                    <mxGeometry x="80" y="50" width="520" height="140" as="geometry"/>
                </mxCell>
                <mxCell id="2" value="Gamepad01 Initialize" style="rounded=0;whiteSpace=wrap;html=1;" parent="1" vertex="1">
                    <mxGeometry x="120" y="80" width="160" height="80" as="geometry"/>
                </mxCell>
                <mxCell id="11" style="edgeStyle=none;curved=1;rounded=0;orthogonalLoop=1;jettySize=auto;html=1;exitX=0.5;exitY=1;exitDx=0;exitDy=0;entryX=0.5;entryY=0;entryDx=0;entryDy=0;fontSize=15;endArrow=open;startSize=14;endSize=14;sourcePerimeterSpacing=8;targetPerimeterSpacing=8;" parent="1" source="3" target="5" edge="1">
                    <mxGeometry relative="1" as="geometry"/>
                </mxCell>
                <mxCell id="3" value="Start Capture" style="rounded=0;whiteSpace=wrap;html=1;" parent="1" vertex="1">
                    <mxGeometry x="260" y="390" width="160" height="80" as="geometry"/>
                </mxCell>
                <mxCell id="5" value="Stop Capture" style="rounded=0;whiteSpace=wrap;html=1;" parent="1" vertex="1">
                    <mxGeometry x="260" y="610" width="160" height="80" as="geometry"/>
                </mxCell>
                <mxCell id="7" value="Gamepad02 Initialize" style="rounded=0;whiteSpace=wrap;html=1;" parent="1" vertex="1">
                    <mxGeometry x="400" y="80" width="160" height="80" as="geometry"/>
                </mxCell>
                <mxCell id="10" value="&lt;span style=&quot;color: rgb(51, 51, 51); font-family: PingFangSC-Medium; font-size: 20px; text-align: start; background-color: rgb(255, 255, 255);&quot;&gt;Periodically get gamepad input&lt;/span&gt;" style="text;html=1;align=center;verticalAlign=middle;resizable=0;points=[];autosize=1;strokeColor=none;fillColor=none;fontSize=15;" parent="1" vertex="1">
                    <mxGeometry x="445" y="410" width="320" height="40" as="geometry"/>
                </mxCell>
                <mxCell id="20" value="" style="group" parent="1" vertex="1" connectable="0">
                    <mxGeometry x="380" y="510" width="220" as="geometry"/>
                </mxCell>
                <mxCell id="17" value="" style="edgeStyle=none;orthogonalLoop=1;jettySize=auto;html=1;rounded=0;fontSize=15;endArrow=none;startSize=14;endSize=14;sourcePerimeterSpacing=8;targetPerimeterSpacing=8;curved=1;endFill=0;exitX=0.75;exitY=1;exitDx=0;exitDy=0;" parent="20" source="3" edge="1">
                    <mxGeometry width="140" relative="1" as="geometry">
                        <mxPoint x="10" as="sourcePoint"/>
                        <mxPoint as="targetPoint"/>
                        <Array as="points"/>
                    </mxGeometry>
                </mxCell>
                <mxCell id="18" value="" style="edgeStyle=none;orthogonalLoop=1;jettySize=auto;html=1;rounded=0;fontSize=15;endArrow=none;startSize=14;endSize=14;sourcePerimeterSpacing=8;targetPerimeterSpacing=8;curved=1;endFill=0;" parent="20" edge="1">
                    <mxGeometry width="140" relative="1" as="geometry">
                        <mxPoint x="220" as="sourcePoint"/>
                        <mxPoint as="targetPoint"/>
                        <Array as="points"/>
                    </mxGeometry>
                </mxCell>
                <mxCell id="19" value="" style="edgeStyle=none;orthogonalLoop=1;jettySize=auto;html=1;rounded=0;fontSize=15;endArrow=none;startSize=14;endSize=14;sourcePerimeterSpacing=8;targetPerimeterSpacing=8;curved=1;endFill=0;exitX=0.48;exitY=1.05;exitDx=0;exitDy=0;exitPerimeter=0;startArrow=open;startFill=0;" parent="20" source="10" edge="1">
                    <mxGeometry width="140" relative="1" as="geometry">
                        <mxPoint x="220" y="-40" as="sourcePoint"/>
                        <mxPoint x="220" as="targetPoint"/>
                        <Array as="points"/>
                    </mxGeometry>
                </mxCell>
                <mxCell id="25" value="" style="edgeStyle=none;orthogonalLoop=1;jettySize=auto;html=1;rounded=0;fontSize=15;startArrow=none;startFill=0;endArrow=none;endFill=0;startSize=14;endSize=14;sourcePerimeterSpacing=8;targetPerimeterSpacing=8;curved=1;" parent="1" edge="1">
                    <mxGeometry width="140" relative="1" as="geometry">
                        <mxPoint x="380" y="350" as="sourcePoint"/>
                        <mxPoint x="600" y="350" as="targetPoint"/>
                        <Array as="points"/>
                    </mxGeometry>
                </mxCell>
                <mxCell id="26" value="" style="edgeStyle=none;orthogonalLoop=1;jettySize=auto;html=1;rounded=0;fontSize=15;startArrow=none;startFill=0;endArrow=none;endFill=0;startSize=14;endSize=14;sourcePerimeterSpacing=8;targetPerimeterSpacing=8;curved=1;exitX=0.48;exitY=-0.05;exitDx=0;exitDy=0;exitPerimeter=0;" parent="1" source="10" edge="1">
                    <mxGeometry width="140" relative="1" as="geometry">
                        <mxPoint x="390" y="360" as="sourcePoint"/>
                        <mxPoint x="600" y="350" as="targetPoint"/>
                        <Array as="points"/>
                    </mxGeometry>
                </mxCell>
                <mxCell id="27" value="" style="edgeStyle=none;orthogonalLoop=1;jettySize=auto;html=1;rounded=0;fontSize=15;startArrow=open;startFill=0;endArrow=none;endFill=0;startSize=14;endSize=14;sourcePerimeterSpacing=8;targetPerimeterSpacing=8;curved=1;" parent="1" edge="1">
                    <mxGeometry width="140" relative="1" as="geometry">
                        <mxPoint x="380" y="390" as="sourcePoint"/>
                        <mxPoint x="380" y="350" as="targetPoint"/>
                        <Array as="points"/>
                    </mxGeometry>
                </mxCell>
                <mxCell id="28" value="WPF ：UI" style="rounded=0;whiteSpace=wrap;html=1;" vertex="1" parent="1">
                    <mxGeometry x="80" y="840" width="160" height="80" as="geometry"/>
                </mxCell>
                <mxCell id="41" value="DeviceBus&lt;br style=&quot;font-size: 17px;&quot;&gt;&lt;br style=&quot;font-size: 17px;&quot;&gt;1. 数据共享&lt;br style=&quot;font-size: 17px;&quot;&gt;2. 扁平化，降低继承复杂度&lt;br style=&quot;font-size: 17px;&quot;&gt;3. 支持不同输入输出的不同频率&lt;br style=&quot;font-size: 17px;&quot;&gt;4. 优化页面渲染&lt;br style=&quot;font-size: 17px;&quot;&gt;5. 输入到输出统一频率&lt;br&gt;6. 管理不同设备的工作线程释放 （TODO)" style="rounded=0;whiteSpace=wrap;html=1;fillColor=#d5e8d4;dashed=1;strokeColor=#82b366;align=left;verticalAlign=top;fontSize=17;container=0;" vertex="1" parent="1">
                    <mxGeometry x="250" y="930.0037500000001" width="500" height="650" as="geometry"/>
                </mxCell>
                <mxCell id="60" value="" style="group" vertex="1" connectable="0" parent="1">
                    <mxGeometry x="270" y="1168.999375" width="460" height="350" as="geometry"/>
                </mxCell>
                <mxCell id="49" value="OutpputFetch" style="rounded=0;whiteSpace=wrap;html=1;dashed=1;fillColor=default;align=left;verticalAlign=top;container=0;" vertex="1" parent="60">
                    <mxGeometry x="280" width="180" height="149.296875" as="geometry"/>
                </mxCell>
                <mxCell id="50" value="InputSync" style="rounded=0;whiteSpace=wrap;html=1;dashed=1;fillColor=default;align=left;verticalAlign=top;container=0;" vertex="1" parent="60">
                    <mxGeometry width="200" height="149.296875" as="geometry"/>
                </mxCell>
                <mxCell id="34" value="WPF : ViewModel 01&lt;br&gt;&lt;br&gt;1.数据渲染" style="rounded=0;whiteSpace=wrap;html=1;fillColor=default;align=left;verticalAlign=top;container=0;" vertex="1" parent="60">
                    <mxGeometry x="9" y="25.140625" width="166" height="107.83661119515885" as="geometry"/>
                </mxCell>
                <mxCell id="30" value="Input Device 01" style="rounded=0;whiteSpace=wrap;html=1;container=0;" vertex="1" parent="60">
                    <mxGeometry x="75" y="62.66000000000008" width="73.42" height="37.34" as="geometry"/>
                </mxCell>
                <mxCell id="44" value="WPF : ViewModel 03&lt;br&gt;" style="rounded=0;whiteSpace=wrap;html=1;fillColor=default;align=left;verticalAlign=top;container=0;" vertex="1" parent="60">
                    <mxGeometry x="302" y="24.140625" width="140" height="108" as="geometry"/>
                </mxCell>
                <mxCell id="45" value="Virtual Output Device 01" style="rounded=0;whiteSpace=wrap;html=1;container=0;" vertex="1" parent="60">
                    <mxGeometry x="318.4200000000001" y="62.66000000000008" width="103.16" height="37.34" as="geometry"/>
                </mxCell>
                <mxCell id="37" value="WPF : ViewModel 02" style="rounded=0;whiteSpace=wrap;html=1;fillColor=default;align=left;verticalAlign=top;container=0;" vertex="1" parent="60">
                    <mxGeometry y="179.76999999999998" width="460" height="170.23" as="geometry"/>
                </mxCell>
                <mxCell id="52" value="proxy" style="ellipse;whiteSpace=wrap;html=1;dashed=1;fillColor=default;container=0;" vertex="1" parent="60">
                    <mxGeometry x="210" y="57.83375000000001" width="50" height="50.78125" as="geometry"/>
                </mxCell>
                <mxCell id="53" value="" style="edgeStyle=none;curved=1;rounded=0;orthogonalLoop=1;jettySize=auto;html=1;exitX=1;exitY=0.5;exitDx=0;exitDy=0;entryX=0;entryY=0.5;entryDx=0;entryDy=0;endArrow=open;startSize=14;endSize=14;sourcePerimeterSpacing=8;dashed=1;endFill=0;" edge="1" parent="60" source="30" target="52">
                    <mxGeometry relative="1" as="geometry">
                        <mxPoint x="177.19999999999982" y="83.140625" as="sourcePoint"/>
                        <mxPoint x="511.87000000000035" y="83.140625" as="targetPoint"/>
                    </mxGeometry>
                </mxCell>
                <mxCell id="47" style="edgeStyle=none;curved=1;rounded=0;orthogonalLoop=1;jettySize=auto;html=1;exitX=1;exitY=0.5;exitDx=0;exitDy=0;entryX=0;entryY=0.5;entryDx=0;entryDy=0;endArrow=none;startSize=14;endSize=14;targetPerimeterSpacing=8;dashed=1;startArrow=open;endFill=0;startFill=0;" edge="1" parent="60" source="52" target="45">
                    <mxGeometry relative="1" as="geometry"/>
                </mxCell>
                <mxCell id="38" value="Input Device 02" style="rounded=0;whiteSpace=wrap;html=1;container=0;" vertex="1" parent="60">
                    <mxGeometry x="26.399999999999977" y="220.3900000000001" width="93.6" height="39.61" as="geometry"/>
                </mxCell>
                <mxCell id="40" value="Input Device 03" style="rounded=0;whiteSpace=wrap;html=1;container=0;" vertex="1" parent="60">
                    <mxGeometry x="26.399999999999977" y="291" width="93.6" height="38.05" as="geometry"/>
                </mxCell>
                <mxCell id="42" value="Output Device 02" style="rounded=0;whiteSpace=wrap;html=1;container=0;" vertex="1" parent="60">
                    <mxGeometry x="318.4200000000001" y="220.3900000000001" width="101.58" height="39.61" as="geometry"/>
                </mxCell>
                <mxCell id="48" style="edgeStyle=none;curved=1;rounded=0;orthogonalLoop=1;jettySize=auto;html=1;exitX=1;exitY=0.5;exitDx=0;exitDy=0;entryX=0;entryY=0.5;entryDx=0;entryDy=0;dashed=1;endArrow=open;startSize=14;endSize=14;sourcePerimeterSpacing=8;targetPerimeterSpacing=8;" edge="1" parent="60" source="38" target="42">
                    <mxGeometry relative="1" as="geometry"/>
                </mxCell>
                <mxCell id="61" value="" style="rounded=0;whiteSpace=wrap;html=1;dashed=1;fontSize=17;fillColor=#dae8fc;strokeColor=#6c8ebf;" vertex="1" parent="1">
                    <mxGeometry x="-270" y="930" width="290" height="650" as="geometry"/>
                </mxCell>
                <mxCell id="62" value="Device 01" style="rounded=0;whiteSpace=wrap;html=1;dashed=1;fontSize=17;fillColor=default;" vertex="1" parent="1">
                    <mxGeometry x="-220" y="1050" width="160" height="80" as="geometry"/>
                </mxCell>
                <mxCell id="63" value="Device 03" style="rounded=0;whiteSpace=wrap;html=1;dashed=1;fontSize=17;fillColor=default;" vertex="1" parent="1">
                    <mxGeometry x="-220" y="1250" width="160" height="80" as="geometry"/>
                </mxCell>
                <mxCell id="64" value="Device 02" style="rounded=0;whiteSpace=wrap;html=1;dashed=1;fontSize=17;fillColor=default;" vertex="1" parent="1">
                    <mxGeometry x="-220" y="1150" width="160" height="80" as="geometry"/>
                </mxCell>
            </root>
        </mxGraphModel>
    </diagram>
</mxfile>